<svg width="632" height="484" viewBox="0 0 632 484" fill="none" xmlns="http://www.w3.org/2000/svg">
<path d="M486.881 27.5212L344.918 2.27038C332.766 0.10881 320.318 0.215806 308.204 2.58596L112.767 40.8253C73.8891 48.4321 43.167 78.2718 34.4307 116.911L9.85424 225.611L0.55642 316.748C-1.12165 333.197 1.30489 349.805 7.61887 365.085L31.0575 421.811C48.0052 462.827 89.9578 487.766 134.087 483.058L350.643 459.955L518.552 446.028C559.601 442.624 594.364 414.397 606.124 374.922L626.924 305.102C633.444 283.215 632.277 259.756 623.616 238.625L561.898 88.0502C548.909 56.3583 520.603 33.5192 486.881 27.5212Z" fill="url(#paint0_linear_135_2692)" fill-opacity="0.4"/>
<defs>
<linearGradient id="paint0_linear_135_2692" x1="317.5" y1="-1" x2="317.5" y2="580.086" gradientUnits="userSpaceOnUse">
<stop stop-color="#F6EFD3"/>
<stop offset="1" stop-color="#F8DBDA"/>
</linearGradient>
</defs>
</svg>
