<svg width="631" height="541" viewBox="0 0 631 541" fill="none" xmlns="http://www.w3.org/2000/svg">
<path d="M494.098 8.73105L339.856 0.646031C331.671 0.216971 323.464 0.795909 315.42 2.36981L136.329 37.4109C86.8822 47.0855 52.3557 92.0353 55.7588 142.304L58.8658 188.199C60.0328 205.439 56.7131 222.686 49.2302 238.261L10.0355 319.838C2.79421 334.909 -0.552266 351.556 0.302244 368.255L4.25089 445.421C7.12688 501.624 55.796 544.386 111.902 540.007L336.674 522.462C344.86 521.823 352.937 520.178 360.721 517.565L530.275 460.637C564.537 449.134 587.622 417.031 587.622 380.889C587.622 365.902 591.626 351.187 599.22 338.266L616.528 308.816C630.252 285.464 633.916 257.543 626.681 231.44L585.231 81.885C573.744 40.4408 537.046 10.9823 494.098 8.73105Z" fill="url(#paint0_linear_1831_6707)" fill-opacity="0.4"/>
<defs>
<linearGradient id="paint0_linear_1831_6707" x1="318.5" y1="0" x2="318.5" y2="581.086" gradientUnits="userSpaceOnUse">
<stop stop-color="#9960A3" stop-opacity="0.4"/>
<stop offset="1" stop-color="#DADBF8" stop-opacity="0.4"/>
</linearGradient>
</defs>
</svg>
