<svg width="457" height="363" viewBox="0 0 457 363" fill="none" xmlns="http://www.w3.org/2000/svg">
<path d="M437.667 77.0386L418.207 50.093C406.75 34.2295 390.891 22.0759 372.594 15.138L332.672 0L265.942 21.7844C257.828 24.4332 249.409 26.0324 240.889 26.5428L100.647 34.9442C70.4798 36.7514 42.7478 52.1046 25.2033 76.7121L19.1917 85.1438C4.9015 105.187 -1.49406 129.797 1.22949 154.261L8.87556 222.943C11.3445 245.12 21.1599 265.834 36.7599 281.789L86.1591 332.313C109.221 355.9 142.432 366.595 174.925 360.9L245.155 348.591C250.855 347.592 256.631 347.09 262.419 347.09H325.027C369.763 347.09 409.056 317.378 421.244 274.334L452.816 162.831C461.143 133.421 455.563 101.818 437.667 77.0386Z" fill="url(#paint0_linear_135_2694)"/>
<defs>
<linearGradient id="paint0_linear_135_2694" x1="274.113" y1="-48.1114" x2="274.113" y2="445.031" gradientUnits="userSpaceOnUse">
<stop stop-color="#8F979B" stop-opacity="0.4"/>
<stop offset="1" stop-color="#F8DBDA" stop-opacity="0.4"/>
</linearGradient>
</defs>
</svg>
