<svg width="511" height="338" viewBox="0 0 511 338" fill="none" xmlns="http://www.w3.org/2000/svg">
<path d="M480.146 105.164L461.322 72.3128C443.502 41.214 410.4 22.031 374.557 22.031H360.96L304.233 4.89635C289.222 0.362367 273.356 -0.578185 257.915 2.15063L108.584 28.5411C88.3112 32.1238 69.6381 41.8762 55.1143 56.4668L29.2553 82.4448C5.94382 105.863 -4.2941 139.286 1.90145 171.743L16.0278 245.748L23.6812 269.023C38.586 314.35 83.4385 342.833 130.801 337.048L271.83 319.822C280.236 318.795 288.738 318.841 297.133 319.957L397.912 333.355C454.011 340.813 505.115 300.273 510.617 243.949L511 240.026L491.684 136.535C489.625 125.504 485.725 114.899 480.146 105.164Z" fill="url(#paint0_linear_1772_6253)"/>
<defs>
<linearGradient id="paint0_linear_1772_6253" x1="303.293" y1="-51.7784" x2="303.293" y2="440.856" gradientUnits="userSpaceOnUse">
<stop stop-color="#DC4A45" stop-opacity="0.4"/>
<stop offset="1" stop-color="#EA8E82" stop-opacity="0.4"/>
</linearGradient>
</defs>
</svg>
