<svg width="468" height="353" viewBox="0 0 468 353" fill="none" xmlns="http://www.w3.org/2000/svg">
<g filter="url(#filter0_d_1836_7245)">
<path d="M254.771 345H350.542C392.057 345 429.255 319.349 444.011 280.545L460 238.5L415.671 128.582C412.577 120.91 410.734 112.792 410.211 104.537C406.938 52.8235 354.737 18.8901 306.147 36.8893L291 42.5L188.621 6.45057C177.951 2.69338 166.721 0.773926 155.408 0.773926H113.441C59.6632 0.773926 23.3436 55.681 44.3845 105.172C46.4557 110.044 48.0055 115.121 49.0082 120.319L58.6133 170.114C63.661 196.282 58.0541 223.383 43.0371 245.401L0 308.5L123 322.09L236.387 343.296C242.449 344.429 248.603 345 254.771 345Z" fill="url(#paint0_linear_1836_7245)" shape-rendering="crispEdges"/>
</g>
<defs>
<filter id="filter0_d_1836_7245" x="0" y="0.773926" width="468" height="352.226" filterUnits="userSpaceOnUse" color-interpolation-filters="sRGB">
<feFlood flood-opacity="0" result="BackgroundImageFix"/>
<feColorMatrix in="SourceAlpha" type="matrix" values="0 0 0 0 0 0 0 0 0 0 0 0 0 0 0 0 0 0 127 0" result="hardAlpha"/>
<feOffset dx="4" dy="4"/>
<feGaussianBlur stdDeviation="2"/>
<feComposite in2="hardAlpha" operator="out"/>
<feColorMatrix type="matrix" values="0 0 0 0 0 0 0 0 0 0 0 0 0 0 0 0 0 0 0.25 0"/>
<feBlend mode="normal" in2="BackgroundImageFix" result="effect1_dropShadow_1836_7245"/>
<feBlend mode="normal" in="SourceGraphic" in2="effect1_dropShadow_1836_7245" result="shape"/>
</filter>
<linearGradient id="paint0_linear_1836_7245" x1="277.113" y1="-73.1114" x2="277.113" y2="420.031" gradientUnits="userSpaceOnUse">
<stop stop-color="#E8B87A"/>
<stop offset="1" stop-color="#F4F4F4" stop-opacity="0.4"/>
</linearGradient>
</defs>
</svg>
