<svg width="663" height="488" viewBox="0 0 663 488" fill="none" xmlns="http://www.w3.org/2000/svg">
<g filter="url(#filter0_d_135_2691)">
<path d="M617.337 154.56L581.296 84.8712C564.122 51.6632 529.858 30.8086 492.472 30.8086H462.487L386.507 5.38029C370.095 -0.112441 352.538 -1.25165 335.554 2.07407L135.299 41.2862C113.998 45.4571 94.6321 56.4454 80.1262 72.5918L26.3874 132.408C5.93345 155.175 -2.96842 186.055 2.22773 216.216L24.5093 345.551L42.4089 405.864C56.4372 453.133 102.826 483.122 151.687 476.51L351.385 449.484C360.675 448.226 370.095 448.282 379.37 449.648L534.855 472.551C591.761 480.934 643.99 439.699 649.042 382.401L653 337.501L627.124 183.887C625.401 173.663 622.1 163.769 617.337 154.56Z" fill="url(#paint0_linear_135_2691)" shape-rendering="crispEdges"/>
</g>
<defs>
<filter id="filter0_d_135_2691" x="0.775391" y="0.210449" width="662.225" height="487.21" filterUnits="userSpaceOnUse" color-interpolation-filters="sRGB">
<feFlood flood-opacity="0" result="BackgroundImageFix"/>
<feColorMatrix in="SourceAlpha" type="matrix" values="0 0 0 0 0 0 0 0 0 0 0 0 0 0 0 0 0 0 127 0" result="hardAlpha"/>
<feOffset dx="6" dy="6"/>
<feGaussianBlur stdDeviation="2"/>
<feComposite in2="hardAlpha" operator="out"/>
<feColorMatrix type="matrix" values="0 0 0 0 0 0 0 0 0 0 0 0 0 0 0 0 0 0 0.25 0"/>
<feBlend mode="normal" in2="BackgroundImageFix" result="effect1_dropShadow_135_2691"/>
<feBlend mode="normal" in="SourceGraphic" in2="effect1_dropShadow_135_2691" result="shape"/>
</filter>
<linearGradient id="paint0_linear_135_2691" x1="389.264" y1="-73.0321" x2="389.264" y2="620.044" gradientUnits="userSpaceOnUse">
<stop stop-color="#AFCAFF"/>
<stop offset="1" stop-color="#EBE4E3" stop-opacity="0.4"/>
</linearGradient>
</defs>
</svg>
