<svg width="633" height="474" viewBox="0 0 633 474" fill="none" xmlns="http://www.w3.org/2000/svg">
<path d="M457.902 58.0758L307.791 14.4169C300.812 12.3872 293.633 11.1243 286.38 10.6507L137.916 0.95571C80.2462 -2.81023 31.3997 42.9505 31.3997 100.743V193.243C31.3997 204.907 29.3591 216.481 25.3702 227.442L6.4987 279.297C-6.64322 315.408 2.07023 355.856 28.9151 383.353L87.1056 442.957C108.689 465.064 139.28 475.954 169.978 472.457L338.352 453.277C346.064 452.399 353.853 452.421 361.56 453.344L480.32 467.566C530.17 473.536 576.718 441.617 589.114 392.965L629.063 236.17C640.234 192.326 620.574 146.443 581.124 124.289L478.94 66.9049C472.287 63.1689 465.229 60.2066 457.902 58.0758Z" fill="url(#paint0_linear_135_2693)"/>
<defs>
<linearGradient id="paint0_linear_135_2693" x1="318.979" y1="-32.0448" x2="318.979" y2="590.861" gradientUnits="userSpaceOnUse">
<stop stop-color="#DED0DA" stop-opacity="0.4"/>
<stop offset="1" stop-color="#F8DBDA"/>
</linearGradient>
</defs>
</svg>
